<?xml version="1.0" encoding="UTF-8"?> <svg xmlns="http://www.w3.org/2000/svg" xmlns:xlink="http://www.w3.org/1999/xlink" version="1.1" id="Layer_1" x="0px" y="0px" viewBox="0 0 1370.7 1026.5" style="enable-background:new 0 0 1370.7 1026.5;" xml:space="preserve"> <style type="text/css"> .st0{fill:none;stroke:#000000;stroke-width:2.8346;stroke-miterlimit:11.3386;} .st1{fill:none;stroke:#010101;stroke-width:4.971016e-02;stroke-miterlimit:1.3242;} </style> <path class="st0" d="M1347.4,1025.1H23.3c-12.1,0-21.9-9.8-21.9-21.9v-980c0-12.1,9.8-21.9,21.9-21.9h1324.2 c12.1,0,21.9,9.8,21.9,21.9v980C1369.3,1015.3,1359.5,1025.1,1347.4,1025.1z"></path> <path class="st0" d="M113.3,741h-8.7c-19.9,0-36.1-16.2-36.1-36.1V321.6c0-19.9,16.2-36.1,36.1-36.1h8.7c19.9,0,36.1,16.2,36.1,36.1 v383.3C149.4,724.9,133.3,741,113.3,741z"></path> <path class="st0" d="M996.6,741H374.2c-17.2,0-31.1-13.9-31.1-31.1V316.7c0-17.2,13.9-31.1,31.1-31.1h622.4 c17.2,0,31.1,13.9,31.1,31.1v393.2C1027.7,727.1,1013.8,741,996.6,741z"></path> <g id="g4771_00000142872232250309725240000008015434872161083830_" transform="matrix(0.13241917,0,0,0.13241917,-151.2079,380.47735)"> <path id="path4727_00000127754606762721106950000001896318292601062322_" class="st1" d="M1604.5,4707v31.6 M1604.5,4716l6.8-6.8 l4.5-2.3h6.8l4.5,2.3l2.3,6.8v22.6 M1629.4,4716l6.8-6.8l4.5-2.3h6.8l4.5,2.3l2.3,6.8v22.6"></path> <path id="path4729_00000039094625762773843210000017389670759990370956_" class="st1" d="M1697.1,4707v31.6 M1697.1,4713.8 l-4.5-4.5l-4.5-2.3h-6.8l-4.5,2.3l-4.5,4.5l-2.3,6.8v4.5l2.3,6.8l4.5,4.5l4.5,2.3h6.8l4.5-2.3l4.5-4.5"></path> <path id="path4731_00000070107318275557934650000013356001002928236420_" class="st1" d="M1715.2,4691.2v47.4 M1737.8,4707 l-22.6,22.6 M1724.2,4720.5l15.8,18.1"></path> <path id="path4733_00000091701547594713054590000013648756669822919088_" class="st1" d="M1751.3,4720.5h27.1v-4.5l-2.3-4.5 l-2.3-2.3l-4.5-2.3h-6.8l-4.5,2.3l-4.5,4.5L1751.3,4720.5v4.5l2.3,6.8l4.5,4.5l4.5,2.3h6.8l4.5-2.3l4.5-4.5"></path> <path id="path4735_00000016777086995419865370000013413465726012353409_" class="st1" d="M1794.3,4707v31.6 M1794.3,4720.5l2.3-6.8 l4.5-4.5l4.5-2.3h6.8"></path> <path id="path4737_00000112615305136266690580000001150503879139977150_" class="st1" d="M1846.2,4713.8l-2.3-4.5l-6.8-2.3h-6.8 l-6.8,2.3l-2.3,4.5l2.3,4.5l4.5,2.3l11.3,2.3l4.5,2.3l2.3,4.5v2.3l-2.3,4.5l-6.8,2.3h-6.8l-6.8-2.3l-2.3-4.5"></path> <path id="path4739_00000080192998706385724640000017700389220217727392_" class="st1" d="M1862,4707v31.6 M1862,4716l6.8-6.8 l4.5-2.3h6.8l4.5,2.3l2.3,6.8v22.6 M1886.9,4716l6.8-6.8l4.5-2.3h6.8l4.5,2.3l2.3,6.8v22.6"></path> <path id="path4741_00000138572629463685173920000002336817929764936597_" class="st1" d="M1954.6,4707v31.6 M1954.6,4713.8 l-4.5-4.5l-4.5-2.3h-6.8l-4.5,2.3l-4.5,4.5l-2.3,6.8v4.5l2.3,6.8l4.5,4.5l4.5,2.3h6.8l4.5-2.3l4.5-4.5"></path> <path id="path4743_00000060741496006942699260000013746152457028254654_" class="st1" d="M1972.7,4691.2v47.4 M1995.3,4707 l-22.6,22.6 M1981.7,4720.5l15.8,18.1"></path> <path id="path4745_00000124163954776690787420000002384154768470869121_" class="st1" d="M2008.8,4691.2l2.3,2.3l2.3-2.3l-2.3-2.3 L2008.8,4691.2 M2011.1,4707v31.6"></path> <path id="path4747_00000121266926257153533490000006557489089565991080_" class="st1" d="M2029.2,4707v31.6 M2029.2,4716l6.8-6.8 l4.5-2.3h6.8l4.5,2.3l2.3,6.8v22.6"></path> <path id="path4749_00000054973659084276182390000017130264541659928477_" class="st1" d="M2096.9,4707v36.1l-2.3,6.8l-2.3,2.3 l-4.5,2.3h-6.8l-4.5-2.3 M2096.9,4713.8l-4.5-4.5l-4.5-2.3h-6.8l-4.5,2.3l-4.5,4.5l-2.3,6.8v4.5l2.3,6.8l4.5,4.5l4.5,2.3h6.8 l4.5-2.3l4.5-4.5"></path> <path id="path4751_00000036940333394594662150000003753542692266949023_" class="st1" d="M2139.8,4713.8l-4.5-4.5l-4.5-2.3h-6.8 l-4.5,2.3l-4.5,4.5l-2.3,6.8v4.5l2.3,6.8l4.5,4.5l4.5,2.3h6.8l4.5-2.3l4.5-4.5"></path> <path id="path4753_00000036960123660402484780000017332301910232454326_" class="st1" d="M2155.7,4691.2v47.4 M2155.7,4716l6.8-6.8 l4.5-2.3h6.8l4.5,2.3l2.3,6.8v22.6"></path> <path id="path4755_00000174579594259079861800000007235101096476992393_" class="st1" d="M2223.4,4707v31.6 M2223.4,4713.8 l-4.5-4.5l-4.5-2.3h-6.8l-4.5,2.3l-4.5,4.5l-2.3,6.8v4.5l2.3,6.8l4.5,4.5l4.5,2.3h6.8l4.5-2.3l4.5-4.5"></path> <path id="path4757_00000168100789427005376260000017695478137472350345_" class="st1" d="M2241.5,4707v31.6 M2241.5,4716l6.8-6.8 l4.5-2.3h6.8l4.5,2.3l2.3,6.8v22.6"></path> <path id="path4759_00000132082901776027842800000017976758108262621596_" class="st1" d="M2309.3,4707v36.1l-2.3,6.8l-2.3,2.3 l-4.5,2.3h-6.8l-4.5-2.3 M2309.3,4713.8l-4.5-4.5l-4.5-2.3h-6.8l-4.5,2.3l-4.5,4.5l-2.3,6.8v4.5l2.3,6.8l4.5,4.5l4.5,2.3h6.8 l4.5-2.3l4.5-4.5"></path> <path id="path4761_00000113317108763879252220000018195958593561621427_" class="st1" d="M2325.1,4720.5h27.1v-4.5l-2.3-4.5 l-2.3-2.3l-4.5-2.3h-6.8l-4.5,2.3l-4.5,4.5L2325.1,4720.5v4.5l2.3,6.8l4.5,4.5l4.5,2.3h6.8l4.5-2.3l4.5-4.5"></path> <path id="path4763_00000127003810309497690730000013601166445731402642_" class="st1" d="M2368,4727.3l-2.3,2.3l2.3,2.3l2.3-2.3 L2368,4727.3"></path> <path id="path4765_00000147941756018863246110000008340343028933490579_" class="st1" d="M2410.9,4713.8l-4.5-4.5l-4.5-2.3h-6.8 l-4.5,2.3l-4.5,4.5l-2.3,6.8v4.5l2.3,6.8l4.5,4.5l4.5,2.3h6.8l4.5-2.3l4.5-4.5"></path> <path id="path4767_00000129883942069671034430000013499344745938442129_" class="st1" d="M2435.7,4707l-4.5,2.3l-4.5,4.5l-2.3,6.8 v4.5l2.3,6.8l4.5,4.5l4.5,2.3h6.8l4.5-2.3l4.5-4.5l2.3-6.8v-4.5l-2.3-6.8l-4.5-4.5l-4.5-2.3H2435.7"></path> <path id="path4769_00000013879554145940311580000000339364265367617942_" class="st1" d="M2469.6,4707v31.6 M2469.6,4716l6.8-6.8 l4.5-2.3h6.8l4.5,2.3l2.3,6.8v22.6 M2494.5,4716l6.8-6.8l4.5-2.3h6.8l4.5,2.3l2.3,6.8v22.6"></path> </g> <path class="st0" d="M1260,741h-8.7c-19.9,0-36.1-16.2-36.1-36.1V321.6c0-19.9,16.2-36.1,36.1-36.1h8.7c19.9,0,36.1,16.2,36.1,36.1 v383.3C1296.1,724.9,1280,741,1260,741z"></path> </svg> 